<?xml version="1.0" standalone="no"?><!DOCTYPE svg PUBLIC "-//W3C//DTD SVG 1.1//EN" "http://www.w3.org/Graphics/SVG/1.1/DTD/svg11.dtd"><svg class="icon" height="512" viewBox="0 0 1041 1024" version="1.1" xmlns="http://www.w3.org/2000/svg"><path d="M609.360335 221.439275c-12.560938-12.926734-32.685535-12.744804-45.064543 0.2458-12.379008 12.988668-12.257076 34.086786 0.243864 47.015456 59.212533 60.981516 154.586634 60.371856 213.067575-1.281254 58.480941-61.651175 57.931279-161.110967-1.281254-222.092483-27.928249-28.721775-64.821408-44.576815-103.179688-45.308407-17.624022-0.305798-32.135873 14.269922-32.441671 32.625537-0.303862 18.353679 13.782194 33.477126 31.344282 33.782924 22.197442 0.365796 43.419428 9.512637 59.57833 26.161202 34.14872 35.124177 34.454518 92.507729 0.671594 128.059635C698.5159 256.259589 643.449057 256.625386 609.360335 221.439275L609.360335 221.439275zM333.178401 597.936462c35.18611 0 63.72402-29.759166 63.72402-66.468459 0-18.53948-7.317859-35.369976-19.087207-47.383188-11.523548-11.707414-27.256655-19.025273-44.636813-19.025273-35.18611 0-63.725955 29.75723-63.725955 66.408461C269.452445 568.177296 297.99229 597.936462 333.178401 597.936462L333.178401 597.936462zM245.30409 706.786958c51.772742 107.69311 157.453005 177.149872 275.084546 177.149872 111.534937 0 212.701778-62.444701 267.097028-161.538697 2.928305-5.305013 5.61081-10.550027 8.111385-15.733107 7.865586-16.4647 1.341253-36.405431-14.391855-44.514881-15.733107-8.171384-34.882248-1.403186-42.6859 14.999579-1.890915 3.96376-3.96376 8.111385-6.342403 12.259011-43.175564 78.603603-123.242351 128.181567-211.78632 128.181567-93.301255 0-177.089874-55.066843-218.128723-140.562511-7.867521-16.4647-27.014726-23.049031-42.747834-14.817649C243.780907 670.443461 237.376571 690.384192 245.30409 706.786958L245.30409 706.786958zM776.753706 531.468003c0-18.53948-7.379793-35.369976-19.149141-47.383188-11.46355-11.707414-27.196657-19.025273-44.514881-19.025273-35.248044 0-63.785954 29.75723-63.785954 66.408461 0 36.709293 28.53791 66.468459 63.785954 66.468459C748.153863 597.936462 776.753706 568.177296 776.753706 531.468003L776.753706 531.468003zM981.953759 525.369464c-4.451488-92.751593-34.57645-180.747836-86.22726-254.778018-10.366161-14.819585-30.246894-18.11175-44.514881-7.317859-14.14799 10.793891-17.380158 31.588147-7.013997 46.405796 47.261256 67.749713 73.54439 148.915825 74.579845 234.471491l0.243864 19.087207 16.098903 9.390704c25.735407 15.123447 42.016241 43.54136 42.016241 74.885642 0 47.137388-36.343497 85.3718-81.531908 85.921462l-18.293681 0.243864-9.024908 16.586632c-69.090966 127.206111-198.371858 207.396766-341.12721 207.396766-144.586269 0-275.268411-82.385432-343.567787-212.092118l-9.938431-18.903341-20.612325 1.707049c-2.256711 0.18193-4.511486 0.303862-6.830131 0.303862-45.552271 0-82.44543-38.478276-82.44543-85.921462 0-35.489973 20.854254-66.956187 51.954672-79.884857l19.271073-7.989453 0.791591-21.585846c8.111385-218.678385 180.809769-392.290292 391.376769-392.290292 14.757651 0 29.269502 0.853524 43.601358 2.500575 17.440156 2.010911 33.233262-11.099689 35.124177-29.333371 1.950913-18.231747-10.610025-34.636448-28.112115-36.709293-16.64663-1.952848-33.53906-2.866371-50.61342-2.866371-238.435251 0-435.038126 191.357861-453.941466 436.07358-44.516816 26.710864-73.238592 76.592691-73.238592 132.025331 0 81.042244 60.675718 147.328773 137.268409 152.086059 81.713838 140.804439 228.311018 229.226476 389.849715 229.226476 160.075512 0 305.637237-86.896919 387.778805-225.750445 71.225745-10.246164 125.864858-73.970184 125.864858-150.928672C1040.800497 598.546122 1018.42306 553.663509 981.953759 525.369464L981.953759 525.369464z" /></svg>