<?xml version="1.0" encoding="UTF-8"?>
<svg width="11px" height="6px" viewBox="0 0 11 6" version="1.1" xmlns="http://www.w3.org/2000/svg" xmlns:xlink="http://www.w3.org/1999/xlink">
    <!-- Generator: Sketch 52.6 (67491) - http://www.bohemiancoding.com/sketch -->
    <title>Group</title>
    <desc>Created with Sketch.</desc>
    <g id="Mockups" stroke="none" stroke-width="1" fill="none" fill-rule="evenodd">
        <g id="Desktop" transform="translate(-838.000000, -36.000000)" fill="#4BABD4" fill-rule="nonzero">
            <g id="Group" transform="translate(838.000000, 36.000000)">
                <path d="M5.57942454,5.99495436 C5.7013875,5.97700089 5.81470248,5.92039243 5.90329385,5.83315987 L10.7917456,1.05400931 C10.9581672,0.910940915 11.0330691,0.685760388 10.9862898,0.469144042 C10.9395105,0.252527695 10.7787491,0.0801277327 10.5687415,0.0213666411 C10.3587339,-0.0373944505 10.1340446,0.027154632 9.98515205,0.189021088 L5.49999707,4.57614109 L1.01484795,0.189021088 C0.865955419,0.027154632 0.641266102,-0.0373944505 0.431258509,0.0213666411 C0.221250916,0.0801277327 0.0604895341,0.252527695 0.0137101968,0.469144042 C-0.0330691406,0.685760388 0.04183283,0.910940915 0.208254378,1.05400931 L5.09670028,5.83315987 C5.22513127,5.95894877 5.4027388,6.01847741 5.57942454,5.99495436 Z" id="Shape"></path>
            </g>
        </g>
    </g>
</svg>