<svg id="svg" xmlns="http://www.w3.org/2000/svg" xmlns:xlink="http://www.w3.org/1999/xlink" width="400" height="400" viewBox="0, 0, 400,400"><g id="svgg"><path id="path0" d="M113.200 41.258 C 100.354 43.385,88.186 53.421,83.365 65.865 C 81.290 71.218,82.897 70.800,64.411 70.802 C 46.462 70.805,46.259 70.832,43.545 73.545 C 39.803 77.288,39.849 83.073,43.651 86.680 C 46.300 89.193,46.351 89.199,63.887 89.206 C 82.808 89.213,81.204 88.802,83.397 94.206 C 97.051 127.854,143.248 127.599,156.831 93.800 C 157.846 91.273,158.564 90.053,159.239 89.706 C 159.994 89.318,180.820 89.209,256.200 89.197 C 348.456 89.183,352.262 89.154,353.800 88.448 C 361.025 85.134,360.994 74.784,353.750 71.545 C 352.160 70.834,348.570 70.808,255.793 70.836 C 162.961 70.863,159.461 70.838,158.775 70.132 C 158.384 69.730,157.512 67.960,156.839 66.200 C 150.112 48.618,131.836 38.172,113.200 41.258 M127.751 50.387 C 149.052 55.835,157.701 82.047,143.859 99.202 C 129.789 116.638,102.298 113.526,92.605 93.400 C 81.265 69.854,102.457 43.918,127.751 50.387 M273.245 161.251 C 260.212 163.416,248.608 172.946,243.414 185.750 C 242.217 188.701,241.510 189.923,240.788 190.288 C 240.006 190.684,219.778 190.791,143.800 190.803 C 51.801 190.817,47.733 190.848,46.200 191.546 C 40.485 194.149,38.991 201.821,43.320 206.334 C 46.128 209.262,36.171 208.978,143.839 209.200 C 222.636 209.363,240.794 209.497,241.306 209.922 C 241.651 210.209,242.594 212.147,243.401 214.230 C 252.956 238.890,283.995 247.163,304.716 230.573 C 310.128 226.240,314.622 219.956,317.030 213.353 C 318.589 209.080,316.987 209.428,336.161 209.200 C 354.737 208.979,354.050 209.075,356.680 206.334 C 361.053 201.775,359.578 194.202,353.800 191.552 C 352.335 190.879,350.853 190.816,336.200 190.803 C 317.223 190.785,318.847 191.201,316.620 185.793 C 309.331 168.087,291.803 158.170,273.245 161.251 M287.157 170.246 C 306.161 174.475,316.256 196.546,307.172 214.007 C 292.327 242.541,249.567 231.947,249.567 199.736 C 249.567 180.080,267.638 165.903,287.157 170.246 M193.464 281.193 C 180.012 283.630,168.677 292.839,163.558 305.489 C 162.688 307.640,161.601 309.715,161.144 310.100 C 160.360 310.759,157.066 310.800,104.456 310.802 C 42.835 310.805,46.518 310.639,43.637 313.533 C 38.953 318.237,40.238 325.713,46.200 328.448 C 47.727 329.149,50.345 329.183,103.800 329.197 C 147.780 329.209,160.012 329.319,160.788 329.712 C 161.514 330.079,162.225 331.318,163.468 334.382 C 176.988 367.714,223.398 367.346,236.835 333.800 C 238.885 328.683,232.038 329.214,296.200 329.197 C 349.655 329.183,352.273 329.149,353.800 328.448 C 359.749 325.719,361.082 317.811,356.349 313.320 C 353.501 310.618,357.856 310.800,295.902 310.800 C 232.366 310.800,238.682 311.196,237.189 307.116 C 230.589 289.083,211.706 277.888,193.464 281.193 M207.840 290.410 C 229.008 295.824,237.680 322.195,223.882 339.190 C 205.764 361.505,169.669 348.897,169.519 320.200 C 169.413 299.977,188.186 285.384,207.840 290.410 " stroke="none" fill="#060606" fill-rule="evenodd"></path><path id="path1" d="M0.000 200.000 L 0.000 400.000 200.000 400.000 L 400.000 400.000 400.000 200.000 L 400.000 0.000 200.000 0.000 L 0.000 0.000 0.000 200.000 M130.048 40.520 C 143.058 43.925,153.268 52.998,158.047 65.400 C 158.725 67.160,159.486 68.852,159.738 69.159 C 160.129 69.637,174.236 69.688,255.962 69.509 C 312.367 69.386,352.265 69.448,353.035 69.661 C 363.172 72.460,363.052 87.559,352.871 90.387 C 351.889 90.660,319.614 90.798,255.800 90.804 C 203.220 90.808,159.978 90.953,159.706 91.126 C 159.434 91.299,158.860 92.463,158.430 93.713 C 146.121 129.490,94.548 129.477,81.595 93.694 C 80.458 90.550,82.133 90.820,63.000 90.700 C 47.352 90.602,46.964 90.581,45.346 89.715 C 38.462 86.033,37.196 77.481,42.763 72.273 C 45.961 69.282,46.531 69.201,64.373 69.194 C 82.001 69.187,80.352 69.543,81.950 65.397 C 89.310 46.291,110.406 35.380,130.048 40.520 M114.200 51.434 C 90.075 56.808,82.621 87.083,101.600 102.606 C 121.039 118.505,150.545 103.472,149.085 78.415 C 148.054 60.734,131.148 47.658,114.200 51.434 M289.400 160.378 C 302.696 163.625,313.176 172.779,318.049 185.400 C 319.649 189.543,317.980 189.187,335.800 189.196 C 345.163 189.201,351.988 189.368,352.871 189.613 C 360.684 191.783,363.312 201.827,357.569 207.569 C 354.498 210.640,354.914 210.577,336.400 210.800 L 319.801 211.000 319.138 212.400 C 315.144 220.833,314.190 222.532,311.726 225.597 C 291.869 250.303,252.424 243.611,241.598 213.700 C 241.100 212.325,240.672 211.156,240.646 211.103 C 240.621 211.050,197.040 210.915,143.800 210.803 L 47.000 210.600 45.346 209.715 C 38.695 206.158,37.255 198.128,42.302 192.733 C 45.962 188.819,34.979 189.201,144.115 189.194 C 196.742 189.191,240.000 189.056,240.244 188.894 C 240.488 188.732,241.337 187.000,242.131 185.044 C 249.795 166.172,269.985 155.636,289.400 160.378 M275.251 171.237 C 261.682 173.321,250.721 186.104,250.814 199.735 C 251.023 230.415,292.008 240.454,305.931 213.236 C 316.770 192.046,298.914 167.601,275.251 171.237 M210.200 280.568 C 223.088 283.892,233.733 293.568,238.393 306.193 L 239.429 309.000 296.215 309.200 C 359.171 309.422,353.505 309.174,357.035 311.858 C 362.188 315.774,361.754 324.937,356.237 328.689 C 353.034 330.868,355.116 330.795,295.762 330.798 C 233.291 330.800,239.439 330.479,238.402 333.800 C 237.431 336.909,234.640 341.712,232.235 344.414 C 230.896 345.918,228.991 348.093,228.002 349.247 C 225.772 351.850,222.665 354.162,218.556 356.276 C 197.082 367.324,170.664 357.208,161.953 334.600 C 161.275 332.840,160.633 331.310,160.527 331.200 C 160.421 331.090,134.833 330.910,103.667 330.800 L 47.000 330.600 45.323 329.703 C 38.656 326.140,37.258 317.634,42.496 312.506 C 45.710 309.360,40.766 309.603,102.087 309.570 C 132.289 309.554,157.792 309.419,158.759 309.270 L 160.518 309.000 161.987 305.338 C 169.783 285.908,190.212 275.412,210.200 280.568 M195.532 291.182 C 175.975 294.770,165.361 314.955,173.753 332.600 C 187.041 360.539,229.050 350.804,228.990 319.800 C 228.955 302.059,212.582 288.054,195.532 291.182 " stroke="none" fill="#f3f3f3" fill-rule="evenodd"></path><path id="path2" d="M112.061 40.017 C 98.239 43.010,86.888 52.578,81.950 65.397 C 80.352 69.543,82.001 69.187,64.373 69.194 C 46.531 69.201,45.961 69.282,42.763 72.273 C 37.196 77.481,38.462 86.033,45.346 89.715 C 46.964 90.581,47.352 90.602,63.000 90.700 C 82.133 90.820,80.458 90.550,81.595 93.694 C 94.548 129.477,146.121 129.490,158.430 93.713 C 158.860 92.463,159.434 91.299,159.706 91.126 C 159.978 90.953,203.220 90.808,255.800 90.804 C 319.614 90.798,351.889 90.660,352.871 90.387 C 363.052 87.559,363.172 72.460,353.035 69.661 C 352.265 69.448,312.367 69.386,255.962 69.509 C 174.236 69.688,160.129 69.637,159.738 69.159 C 159.486 68.852,158.725 67.160,158.047 65.400 C 150.950 46.982,130.930 35.930,112.061 40.017 M130.000 41.174 C 142.897 44.543,153.433 54.290,158.008 67.085 C 159.361 70.869,149.555 70.550,257.044 70.304 C 350.891 70.090,352.332 70.098,354.053 70.867 C 360.773 73.869,362.061 82.862,356.457 87.658 C 353.549 90.147,359.869 90.000,255.898 90.000 C 165.217 90.000,160.047 90.037,159.302 90.700 C 158.869 91.085,158.192 92.300,157.798 93.400 C 145.172 128.657,94.612 128.657,82.190 93.400 C 80.917 89.788,82.045 90.000,64.102 90.000 C 46.731 90.000,46.209 89.941,43.543 87.658 C 37.975 82.893,39.165 74.090,45.800 70.953 C 47.799 70.008,47.811 70.008,63.856 70.004 C 82.240 69.999,80.915 70.271,82.392 66.200 C 87.328 52.594,99.152 43.005,114.400 40.242 C 117.159 39.743,126.703 40.312,130.000 41.174 M116.000 50.423 C 93.831 53.442,82.779 79.158,95.812 97.400 C 110.881 118.492,143.968 111.383,149.221 85.925 C 153.340 65.962,136.222 47.669,116.000 50.423 M127.400 51.796 C 144.861 56.373,154.138 76.059,146.440 92.200 C 133.379 119.587,92.946 111.861,90.961 81.600 C 89.684 62.132,108.408 46.818,127.400 51.796 M274.500 159.598 C 259.975 161.650,247.718 171.285,242.131 185.044 C 241.337 187.000,240.488 188.732,240.244 188.894 C 240.000 189.056,196.742 189.191,144.115 189.194 C 34.979 189.201,45.962 188.819,42.302 192.733 C 37.255 198.128,38.695 206.158,45.346 209.715 L 47.000 210.600 143.800 210.803 C 197.040 210.915,240.621 211.050,240.646 211.103 C 240.672 211.156,241.100 212.325,241.598 213.700 C 252.424 243.611,291.869 250.303,311.726 225.597 C 314.190 222.532,315.144 220.833,319.138 212.400 L 319.801 211.000 336.400 210.800 C 354.914 210.577,354.498 210.640,357.569 207.569 C 363.312 201.827,360.684 191.783,352.871 189.613 C 351.988 189.368,345.163 189.201,335.800 189.196 C 317.980 189.187,319.649 189.543,318.049 185.400 C 311.292 167.897,292.899 156.999,274.500 159.598 M290.600 161.374 C 303.535 165.173,313.403 174.326,317.798 186.600 C 319.093 190.216,317.926 189.999,336.144 190.004 C 352.189 190.008,352.201 190.008,354.200 190.953 C 362.029 194.655,361.909 205.587,354.000 209.168 C 352.289 209.942,351.423 209.983,336.400 209.997 C 318.275 210.014,319.130 209.857,317.807 213.403 C 307.610 240.718,273.618 248.962,252.653 229.204 C 247.938 224.760,244.751 220.000,242.383 213.867 C 241.652 211.973,240.958 210.832,240.338 210.506 C 239.601 210.118,218.899 210.011,143.846 210.006 C 40.155 209.999,46.450 210.147,43.543 207.658 C 37.915 202.841,39.221 193.901,46.000 190.832 C 47.795 190.020,48.084 190.018,143.824 190.009 C 220.755 190.002,239.985 189.899,240.541 189.493 C 240.923 189.213,241.833 187.503,242.563 185.692 C 250.339 166.406,271.412 155.739,290.600 161.374 M276.400 170.439 C 254.200 172.717,242.695 198.940,255.797 217.400 C 267.524 233.924,292.482 233.924,304.202 217.400 C 319.290 196.127,302.497 167.761,276.400 170.439 M287.400 171.802 C 313.469 178.575,316.880 214.320,292.600 226.289 C 271.429 236.725,246.926 217.919,251.378 194.651 C 254.551 178.068,271.104 167.568,287.400 171.802 M193.009 279.821 C 178.774 282.510,167.389 291.875,161.987 305.338 L 160.518 309.000 158.759 309.270 C 157.792 309.419,132.289 309.554,102.087 309.570 C 40.766 309.603,45.710 309.360,42.496 312.506 C 37.258 317.634,38.656 326.140,45.323 329.703 L 47.000 330.600 103.667 330.800 C 134.833 330.910,160.421 331.090,160.527 331.200 C 160.633 331.310,161.275 332.840,161.953 334.600 C 170.664 357.208,197.082 367.324,218.556 356.276 C 222.665 354.162,225.772 351.850,228.002 349.247 C 228.991 348.093,230.896 345.918,232.235 344.414 C 234.640 341.712,237.431 336.909,238.402 333.800 C 239.439 330.479,233.291 330.800,295.762 330.798 C 355.116 330.795,353.034 330.868,356.237 328.689 C 361.754 324.937,362.188 315.774,357.035 311.858 C 353.505 309.174,359.171 309.422,296.215 309.200 L 239.429 309.000 238.393 306.193 C 231.575 287.721,211.852 276.260,193.009 279.821 M210.000 281.174 C 222.694 284.490,233.501 294.371,237.810 306.600 C 239.140 310.374,232.718 309.999,296.144 310.004 L 352.200 310.008 354.200 310.953 C 360.835 314.090,362.025 322.893,356.457 327.658 C 353.589 330.113,356.517 329.999,296.154 330.006 C 234.127 330.012,239.094 329.750,237.968 333.077 C 236.736 336.713,234.006 341.477,231.661 344.079 C 230.412 345.465,228.686 347.478,227.826 348.552 C 219.037 359.518,197.957 363.267,183.410 356.450 C 173.481 351.797,166.347 344.135,162.383 333.867 C 160.740 329.611,166.831 330.013,103.846 330.006 C 43.483 329.999,46.411 330.113,43.543 327.658 C 37.612 322.582,39.703 312.475,47.110 310.418 C 48.103 310.142,67.150 310.004,104.256 310.002 C 167.530 310.000,160.860 310.426,162.358 306.292 C 167.293 292.678,179.672 282.559,194.200 280.262 C 197.355 279.763,206.655 280.300,210.000 281.174 M196.126 290.379 C 168.879 294.684,160.738 329.267,183.325 344.753 C 202.807 358.110,229.728 343.865,229.728 320.200 C 229.727 302.026,213.508 287.632,196.126 290.379 M208.232 292.038 C 225.651 297.412,234.033 316.352,226.184 332.600 C 212.728 360.451,171.130 350.945,171.044 320.000 C 170.990 300.555,189.857 286.369,208.232 292.038 " stroke="none" fill="#969696" fill-rule="evenodd"></path><path id="path3" d="M140.000 57.725 C 140.000 57.794,140.585 58.379,141.300 59.025 L 142.600 60.200 141.425 58.900 C 140.330 57.688,140.000 57.416,140.000 57.725 M42.778 73.100 L 41.400 74.600 42.900 73.222 C 44.296 71.938,44.584 71.600,44.278 71.600 C 44.212 71.600,43.537 72.275,42.778 73.100 M140.981 101.300 L 139.400 103.000 141.100 101.419 C 142.035 100.549,142.800 99.784,142.800 99.719 C 142.800 99.416,142.452 99.719,140.981 101.300 M97.600 100.125 C 97.600 100.194,98.185 100.779,98.900 101.425 L 100.200 102.600 99.025 101.300 C 97.930 100.088,97.600 99.816,97.600 100.125 M277.300 170.276 C 277.685 170.376,278.315 170.376,278.700 170.276 C 279.085 170.175,278.770 170.093,278.000 170.093 C 277.230 170.093,276.915 170.175,277.300 170.276 M281.505 170.283 C 282.002 170.379,282.722 170.375,283.105 170.275 C 283.487 170.175,283.080 170.096,282.200 170.101 C 281.320 170.105,281.007 170.187,281.505 170.283 M300.000 177.725 C 300.000 177.794,300.585 178.379,301.300 179.025 L 302.600 180.200 301.425 178.900 C 300.330 177.688,300.000 177.416,300.000 177.725 M42.778 193.100 L 41.400 194.600 42.900 193.222 C 43.725 192.463,44.400 191.788,44.400 191.722 C 44.400 191.416,44.062 191.704,42.778 193.100 M300.981 221.300 L 299.400 223.000 301.100 221.419 C 302.681 219.948,302.984 219.600,302.681 219.600 C 302.616 219.600,301.851 220.365,300.981 221.300 M257.600 220.125 C 257.600 220.194,258.185 220.779,258.900 221.425 L 260.200 222.600 259.025 221.300 C 257.930 220.088,257.600 219.816,257.600 220.125 M220.000 297.725 C 220.000 297.794,220.585 298.379,221.300 299.025 L 222.600 300.200 221.425 298.900 C 220.330 297.688,220.000 297.416,220.000 297.725 M75.531 310.300 C 90.783 310.358,115.623 310.358,130.731 310.300 C 145.839 310.242,133.360 310.194,103.000 310.194 C 72.640 310.194,60.279 310.242,75.531 310.300 M170.093 318.000 C 170.093 318.770,170.175 319.085,170.276 318.700 C 170.376 318.315,170.376 317.685,170.276 317.300 C 170.175 316.915,170.093 317.230,170.093 318.000 M170.093 322.000 C 170.093 322.770,170.175 323.085,170.276 322.700 C 170.376 322.315,170.376 321.685,170.276 321.300 C 170.175 320.915,170.093 321.230,170.093 322.000 M220.981 341.300 L 219.400 343.000 221.100 341.419 C 222.035 340.549,222.800 339.784,222.800 339.719 C 222.800 339.416,222.452 339.719,220.981 341.300 M177.600 340.125 C 177.600 340.194,178.185 340.779,178.900 341.425 L 180.200 342.600 179.025 341.300 C 177.930 340.088,177.600 339.816,177.600 340.125 M230.800 344.600 C 229.828 345.590,229.123 346.400,229.233 346.400 C 229.343 346.400,230.228 345.590,231.200 344.600 C 232.172 343.610,232.877 342.800,232.767 342.800 C 232.657 342.800,231.772 343.610,230.800 344.600 M226.181 350.100 L 224.600 351.800 226.300 350.219 C 227.881 348.748,228.184 348.400,227.881 348.400 C 227.816 348.400,227.051 349.165,226.181 350.100 " stroke="none" fill="#7c7c7c" fill-rule="evenodd"></path><path id="path4" d="M113.400 40.635 C 99.060 43.159,86.604 53.724,82.234 67.069 C 81.235 70.118,82.280 69.946,63.984 70.079 C 45.623 70.213,46.265 70.124,43.265 72.945 C 37.697 78.180,40.022 87.503,47.408 89.553 C 48.444 89.841,54.425 89.996,64.526 89.998 C 81.859 90.000,81.243 89.899,82.217 92.896 C 93.577 127.859,143.533 128.861,157.216 94.400 C 157.958 92.530,158.833 90.775,159.159 90.500 C 159.631 90.103,179.468 90.000,255.413 90.000 C 335.308 90.000,351.373 89.910,352.896 89.451 C 361.191 86.955,362.350 75.600,354.739 71.385 L 352.600 70.200 256.400 70.352 C 162.706 70.500,160.178 70.484,159.357 69.752 C 158.894 69.338,158.195 68.100,157.804 67.000 C 151.274 48.614,132.249 37.317,113.400 40.635 M126.400 41.221 C 139.933 43.383,151.851 53.162,156.839 66.200 C 157.512 67.960,158.384 69.730,158.775 70.132 C 159.461 70.838,162.961 70.863,255.793 70.836 C 348.570 70.808,352.160 70.834,353.750 71.545 C 360.994 74.784,361.025 85.134,353.800 88.448 C 352.262 89.154,348.456 89.183,256.200 89.197 C 180.820 89.209,159.994 89.318,159.239 89.706 C 158.564 90.053,157.846 91.273,156.831 93.800 C 143.248 127.599,97.051 127.854,83.397 94.206 C 81.204 88.802,82.808 89.213,63.887 89.206 C 46.351 89.199,46.300 89.193,43.651 86.680 C 39.849 83.073,39.803 77.288,43.545 73.545 C 46.259 70.832,46.462 70.805,64.411 70.802 C 82.897 70.800,81.290 71.218,83.365 65.865 C 90.002 48.735,108.200 38.314,126.400 41.221 M112.225 50.396 C 84.960 57.742,81.279 94.731,106.546 107.472 C 126.601 117.585,150.652 102.569,150.549 80.000 C 150.458 59.976,131.376 45.236,112.225 50.396 M127.800 51.006 C 148.859 56.743,156.951 82.398,143.027 99.279 C 129.325 115.890,102.320 112.523,93.018 93.044 C 82.025 70.023,103.286 44.328,127.800 51.006 M274.600 160.448 C 260.611 162.179,247.957 172.254,242.758 185.800 C 242.083 187.560,241.357 189.180,241.145 189.400 C 240.892 189.663,207.747 189.868,144.080 190.000 L 47.400 190.200 45.800 191.065 C 37.719 195.433,38.541 206.599,47.160 209.537 C 48.175 209.883,72.751 210.000,144.286 210.000 C 206.752 210.000,240.310 210.138,240.793 210.396 C 241.200 210.614,241.841 211.739,242.217 212.896 C 253.642 248.059,302.934 248.922,317.350 214.211 C 319.265 209.600,317.469 210.013,335.640 210.006 C 346.582 210.002,351.901 209.857,352.840 209.537 C 362.322 206.305,362.027 193.068,352.414 190.397 C 351.600 190.171,344.366 190.004,335.376 190.002 C 317.927 190.000,318.949 190.174,317.811 187.000 C 311.344 168.962,293.651 158.090,274.600 160.448 M287.517 161.433 C 301.018 164.207,311.264 172.783,316.620 185.793 C 318.847 191.201,317.223 190.785,336.200 190.803 C 350.853 190.816,352.335 190.879,353.800 191.552 C 359.578 194.202,361.053 201.775,356.680 206.334 C 354.050 209.075,354.737 208.979,336.161 209.200 C 316.987 209.428,318.589 209.080,317.030 213.353 C 304.675 247.230,256.410 247.804,243.401 214.230 C 242.594 212.147,241.651 210.209,241.306 209.922 C 240.794 209.497,222.636 209.363,143.839 209.200 C 36.171 208.978,46.128 209.262,43.320 206.334 C 38.991 201.821,40.485 194.149,46.200 191.546 C 47.733 190.848,51.801 190.817,143.800 190.803 C 219.778 190.791,240.006 190.684,240.788 190.288 C 241.510 189.923,242.217 188.701,243.414 185.750 C 250.607 168.017,269.326 157.696,287.517 161.433 M276.127 169.632 C 250.026 172.735,240.055 206.711,260.336 223.439 C 275.583 236.016,298.079 231.486,307.172 214.007 C 318.482 192.268,300.609 166.720,276.127 169.632 M287.800 171.009 C 311.060 177.323,317.779 207.767,299.279 223.027 C 279.038 239.722,248.645 224.488,250.148 198.400 C 251.244 179.378,269.556 166.056,287.800 171.009 M195.800 280.247 C 179.753 282.675,167.739 292.075,162.570 306.247 C 161.980 307.864,161.223 309.415,160.887 309.694 C 160.404 310.095,148.473 310.242,103.439 310.400 C 51.394 310.583,46.499 310.656,45.400 311.266 C 37.729 315.522,38.800 326.952,47.104 329.451 C 48.611 329.905,58.567 330.000,104.490 330.000 C 165.599 330.000,161.204 329.779,162.217 332.896 C 169.359 354.877,195.671 366.165,216.625 356.239 C 221.398 353.978,224.544 351.809,226.911 349.148 C 227.962 347.967,229.975 345.715,231.385 344.144 C 233.890 341.351,236.294 337.179,237.805 333.000 C 238.203 331.900,238.804 330.775,239.140 330.500 C 239.624 330.105,251.478 330.000,295.413 330.000 C 341.418 330.000,351.389 329.905,352.896 329.451 C 361.191 326.955,362.350 315.600,354.739 311.385 L 352.600 310.200 295.943 310.093 C 251.610 310.010,239.202 309.879,238.897 309.493 C 238.682 309.222,238.108 307.920,237.621 306.600 C 231.298 289.451,212.646 277.698,195.800 280.247 M210.600 282.180 C 223.248 285.913,232.659 294.738,237.189 307.116 C 238.682 311.196,232.366 310.800,295.902 310.800 C 357.856 310.800,353.501 310.618,356.349 313.320 C 361.082 317.811,359.749 325.719,353.800 328.448 C 352.273 329.149,349.655 329.183,296.200 329.197 C 232.038 329.214,238.885 328.683,236.835 333.800 C 233.752 341.498,226.724 349.915,220.175 353.753 C 199.144 366.081,172.655 357.032,163.468 334.382 C 162.225 331.318,161.514 330.079,160.788 329.712 C 160.012 329.319,147.780 329.209,103.800 329.197 C 50.345 329.183,47.727 329.149,46.200 328.448 C 40.238 325.713,38.953 318.237,43.637 313.533 C 46.518 310.639,42.835 310.805,104.456 310.802 C 157.066 310.800,160.360 310.759,161.144 310.100 C 161.601 309.715,162.688 307.640,163.558 305.489 C 171.065 286.939,191.842 276.643,210.600 282.180 M195.800 289.623 C 174.930 292.862,163.191 315.484,172.798 333.950 C 185.743 358.831,222.401 354.850,229.643 327.777 C 235.189 307.044,216.840 286.358,195.800 289.623 M207.800 291.006 C 228.854 296.742,236.948 322.402,223.027 339.279 C 209.322 355.893,182.327 352.528,173.017 333.044 C 162.041 310.074,183.333 284.341,207.800 291.006 " stroke="none" fill="#747474" fill-rule="evenodd"></path></g></svg>