<?xml version="1.0" encoding="UTF-8"?>
<svg width="25px" height="20px" viewBox="0 0 25 20" version="1.1" xmlns="http://www.w3.org/2000/svg" xmlns:xlink="http://www.w3.org/1999/xlink">
    <!-- Generator: Sketch 52.6 (67491) - http://www.bohemiancoding.com/sketch -->
    <title>Shape</title>
    <desc>Created with Sketch.</desc>
    <g id="Mockups" stroke="none" stroke-width="1" fill="none" fill-rule="evenodd">
        <g id="Mobile" transform="translate(-19.000000, -20.000000)" fill="#4BABD4" fill-rule="nonzero">
            <path d="M19.7542285,38.3907405 L43.1336454,38.3907405 C43.3482855,38.3874762 43.5652523,38.4890869 43.698486,38.6493592 C43.8317197,38.8096316 43.8878739,39.0056577 43.8878739,39.1953321 C43.8878739,39.3850065 43.8317197,39.5810326 43.698486,39.7413049 C43.5652523,39.9015772 43.3482855,40.003188 43.1336454,39.9999236 L19.7542285,39.9999236 C19.5395885,40.003188 19.3226216,39.9015772 19.1893879,39.7413049 C19.0561542,39.5810326 19,39.3850065 19,39.1953321 C19,39.0056577 19.0561542,38.8096316 19.1893879,38.6493592 C19.3226216,38.4890869 19.5395885,38.3874762 19.7542285,38.3907405 Z M19.7542285,29.1954084 L43.1336454,29.1954084 C43.3482855,29.1921441 43.5652523,29.2937548 43.698486,29.4540272 C43.8317197,29.6142995 43.8878739,29.8103256 43.8878739,30 C43.8878739,30.1896744 43.8317197,30.3857005 43.698486,30.5459728 C43.5652523,30.7062452 43.3482855,30.8078559 43.1336454,30.8045916 L19.7542285,30.8045916 C19.5395885,30.8078559 19.3226216,30.7062452 19.1893879,30.5459728 C19.0561542,30.3857005 19,30.1896744 19,30 C19,29.8103256 19.0561542,29.6142995 19.1893879,29.4540272 C19.3226216,29.2937548 19.5395885,29.1921441 19.7542285,29.1954084 Z M19.7542285,20.0000764 L43.1336454,20.0000764 C43.3482855,19.996812 43.5652523,20.0984228 43.698486,20.2586951 C43.8317197,20.4189674 43.8878739,20.6149935 43.8878739,20.8046679 C43.8878739,20.9943423 43.8317197,21.1903684 43.698486,21.3506408 C43.5652523,21.5109131 43.3482855,21.6125238 43.1336454,21.6092595 L19.7542285,21.6092595 C19.5395885,21.6125238 19.3226216,21.5109131 19.1893879,21.3506408 C19.0561542,21.1903684 19,20.9943423 19,20.8046679 C19,20.6149935 19.0561542,20.4189674 19.1893879,20.2586951 C19.3226216,20.0984228 19.5395885,19.996812 19.7542285,20.0000764 Z" id="Shape"></path>
        </g>
    </g>
</svg>