<?xml version='1.0' encoding='utf-8'?>
<svg xmlns="http://www.w3.org/2000/svg" width="91.44mm" height="91.44mm" version="1.1" style="shape-rendering:geometricPrecision; text-rendering:geometricPrecision; image-rendering:optimizeQuality; fill-rule:evenodd; clip-rule:evenodd" viewBox="0 0 9144 9144"> <defs> <style type="text/css">  .fil0 {fill:#F0F0F0} .fil1 {fill:#011627;fill-rule:nonzero}  </style> </defs> <g id="Layer_x0020_1"> <metadata id="CorelCorpID_0Corel-Layer"/> <g id="_2744629455904"> <polygon class="fil0" points="0,0 9144,0 9144,9144 0,9144 "/> <g> <path class="fil1" d="M6601 4572c0,-560 -227,-1067 -594,-1435 -368,-367 -875,-594 -1435,-594 -560,0 -1067,227 -1435,594 -367,368 -594,875 -594,1435 0,560 227,1067 594,1435 368,367 875,594 1435,594 560,0 1067,-227 1435,-594 367,-368 594,-875 594,-1435zm-1559 -1041l542 0c49,0 88,39 88,88l0 1905c0,49 -39,88 -88,88l-542 0c-49,0 -88,-39 -88,-88l0 -791 0 -322 0 -792c0,-49 39,-88 88,-88zm454 176l-366 0 0 1729 366 0 0 -1729zm-1848 1656l1231 -791 -1231 -792 0 1583zm1306 -630l-1342 862c-14,11 -32,17 -52,17 -49,0 -88,-39 -88,-88l0 -1905 0 0c0,-16 4,-33 14,-48 26,-40 81,-52 122,-26l1346 866 0 322zm1177 -1720c399,399 646,950 646,1559 0,609 -247,1160 -646,1559 -399,399 -950,646 -1559,646 -609,0 -1160,-247 -1559,-646 -399,-399 -646,-950 -646,-1559 0,-609 247,-1160 646,-1559 399,-399 950,-646 1559,-646 609,0 1160,247 1559,646z"/> </g> </g> </g> </svg>