<?xml version="1.0" encoding="iso-8859-1"?>
<!-- Generator: Adobe Illustrator 18.1.1, SVG Export Plug-In . SVG Version: 6.00 Build 0)  -->
<svg version="1.1" id="Capa_1" xmlns="http://www.w3.org/2000/svg" xmlns:xlink="http://www.w3.org/1999/xlink" x="0px" y="0px"
	 viewBox="0 0 326.414 326.414" style="enable-background:new 0 0 326.414 326.414;" xml:space="preserve">
<g>
	<g>
		<circle style="fill:#010002;" cx="175.972" cy="29.614" r="29.614"/>
		<path style="fill:#010002;" d="M266.692,304.454l-5.848-14.237l2.59-1.08l-1.044-3.061
			c-11.319-33.224-22.961-72.497-30.616-99.169c2.094,3.878,4.29,7.703,6.623,11.438c2.667,4.266,7.118-3.562,5.006-6.928
			c-3.455-5.525-6.605-11.224-9.428-17.083c0.364,0.089,0.722,0.179,1.092,0.263c3.717,0.859,5.8,2.864,7.429,6.325
			c0.603,1.271,1.349,1.844,2.751,1.874c2.035,0.054,4.38-0.573,5.501-2.47c0.585-0.973,1.122-1.892,1.384-3.007
			c0.09-0.334,0.149-0.668,0.191-1.008c0.042-0.227,0.084-0.388,0.125-0.525c1.193-1.551,1.623-3.789,0.907-5.615
			c-0.746-1.903-2.858-2.488-4.404-1.056c-1.038,0.955-1.79,2.07-2.267,3.359c-1.581-2.518-3.592-4.642-6.504-5.842
			c-3.306-1.36-6.916-1.462-10.03-3.335c-0.835-0.501-1.617-0.513-2.333-0.245c-0.764-0.072-1.569,0.394-2.273,1.122
			c-0.704-6.486-1.438-12.972-2.226-19.446c10.818-6.361,21.397-13.801,32.251-22.68c4.201-3.431,6.617-8.688,6.832-14.798
			c0.233-6.695-2.261-13.151-6.653-17.268c-16.862-15.818-37.024-20.717-58.368-25.914l-1.462-0.358
			c-0.609-0.209-1.253-0.316-1.921-0.316c-5.227,0-11.612,7.685-15.794,13.7c-3.628-5.388-8.551-11.206-12.865-11.206
			c-0.973,0-1.921,0.257-2.751,0.752c-3.443,2.082-6.391,1.187-8.789,4.171L89.089,44.895V57.24l-15.46-5.895
			c-6.784-1.414-13.425,2.93-14.834,9.708c-1.42,6.772,2.924,13.425,9.708,14.834l20.586,7.184v11.922l61.304,24.184
			c2.572,17.584,4.911,36.052,6.975,54.985c-20.323,5.167-40.3,13.455-59.412,24.661c-5.728,3.353-9.243,8.419-9.929,14.32
			c-0.686,1.76-1.158,3.634-1.384,5.567l-8.377,68.673l5.639,1.068l-2.476,14.529c-1.48,8.664,4.344,16.88,13.008,18.36
			c8.664,1.474,16.892-4.35,18.366-13.02l2.381-13.951l5.728,1.092l7.852-64.227c18.617-9.714,48.421-22.131,54.901-24.798
			c3.013,0.471,6.134,0.561,9.278,0.269l34.715,97.373l3.813-1.593l5.782,14.064c3.341,8.127,12.638,12.011,20.765,8.664
			C266.149,321.883,270.028,312.586,266.692,304.454z M156.795,115.226l-0.436-2.948L95.998,88.095V57.002l61.304,24.184l1.032-1.45
			c1.874-2.643,4.29-4.917,7.178-6.772c1.981,1.152,6.349,6.689,9.636,12.28l2.888,4.935l3.019-4.857
			c4.6-7.399,10.645-14.428,12.817-14.977l1.868,0.453c20.437,4.97,39.739,9.666,55.283,24.237
			c2.912,2.733,4.624,7.327,4.475,11.987c-0.143,4.099-1.665,7.542-4.302,9.69c-9.875,8.079-19.518,14.863-29.309,20.771
			l-7.363-31.183l-6.731,1.593l0.973,4.117l-18.879,7.691c-6.408,2.613-9.493,9.929-6.88,16.343
			c2.613,6.408,9.923,9.487,16.343,6.874l15.562-4.899l1.289,5.472c0.877,7.232,1.707,14.464,2.494,21.707h-55.396
			C161.341,148.008,159.163,131.229,156.795,115.226z M197.536,199.031l-2.858,0.489c-3.622,0.621-7.333,0.603-10.776-0.048
			l-1.008-0.191l-0.943,0.388c-3.855,1.581-38.17,15.747-58.028,26.302l-1.587,0.847l-7.393,60.486l-29.041-5.501l7.584-62.246
			c0.185-1.504,0.549-2.876,1.116-4.219l0.251-1.044c0.34-3.89,2.619-7.178,6.587-9.511c19.464-11.397,39.817-19.679,60.492-24.625
			l2.954-0.704l-0.322-3.019c-0.03-0.274-0.066-0.543-0.095-0.817h56.9c6.999,24.774,20.335,70.815,33.438,109.623l-23.08,9.648
			C231.727,294.889,197.536,199.031,197.536,199.031z"/>
	</g>
</g>
<g>
</g>
<g>
</g>
<g>
</g>
<g>
</g>
<g>
</g>
<g>
</g>
<g>
</g>
<g>
</g>
<g>
</g>
<g>
</g>
<g>
</g>
<g>
</g>
<g>
</g>
<g>
</g>
<g>
</g>
</svg>
