<?xml version="1.0" encoding="UTF-8"?>
<svg width="30px" height="26px" viewBox="0 0 30 26" version="1.1" xmlns="http://www.w3.org/2000/svg" xmlns:xlink="http://www.w3.org/1999/xlink">
    <!-- Generator: Sketch 52.6 (67491) - http://www.bohemiancoding.com/sketch -->
    <title>Group</title>
    <desc>Created with Sketch.</desc>
    <g id="Mockups" stroke="none" stroke-width="1" fill="none" fill-rule="evenodd">
        <g id="Feature-Detail" transform="translate(-1105.000000, -857.000000)" fill="#4BABD4" fill-rule="nonzero">
            <g id="Group" transform="translate(1120.000000, 870.000000) scale(-1, -1) translate(-1120.000000, -870.000000) translate(1105.000000, 857.000000)">
                <path d="M27.0336667,8.6968114 L20.5973333,8.6968114 L20.5973333,3.08890379 C20.5973333,1.38578096 19.1926667,0 17.4663333,0 L15.0016667,0 C14.6336667,0 14.335,0.294651101 14.335,0.65770335 L14.335,4.88542049 L10.3106667,11.0326449 C10.042,11.4039184 9.818,11.7446087 9.62766667,12.0649103 C9.332,11.9221886 9.001,11.8396469 8.65033333,11.8396469 L2.23366667,11.8396469 C1.002,11.8396469 0,12.828175 0,14.0432819 L0,23.7963649 C0,25.0114719 1.002,26 2.23366667,26 L8.65033333,26 C9.319,26 9.91866667,25.7069932 10.3283333,25.246272 C10.908,25.6343169 11.5956667,25.851359 12.3106667,25.851359 L24.1933333,25.851359 C25.8286667,25.851359 27.1593333,24.5385832 27.1593333,22.924908 C27.1593333,22.6134854 27.1103333,22.3102842 27.014,22.0222101 C28.18,21.6275881 29.0203333,20.5354717 29.0203333,19.2529502 C29.0203333,18.8369528 28.928,18.4268748 28.7536667,18.0509973 C29.521,17.5093786 30,16.6273984 30,15.6740574 C30,14.9005983 29.696,14.1813996 29.17,13.6470157 C29.696,13.1109874 30,12.39146 30,11.6193162 C30,10.0076142 28.6693333,8.6968114 27.0336667,8.6968114 Z M27.1030841,13.7179364 C27.6562481,13.9881934 27.9996707,14.5296783 27.9996707,15.1316878 C27.9996707,15.7926036 27.5699809,16.3904056 26.9312082,16.6195576 C26.7290399,16.6920576 26.5756027,16.8564774 26.5202863,17.0610312 C26.4649699,17.2652613 26.5143596,17.4830852 26.6529798,17.6449157 C26.8972939,17.9300611 27.031963,18.2883538 27.031963,18.6540908 C27.031963,19.5282992 26.3082401,20.2397062 25.4188973,20.2397062 L25.3569956,20.2397062 C25.1037914,20.2397062 24.8729772,20.382117 24.7633322,20.6067378 C24.6536872,20.8307112 24.684638,21.0970842 24.8426848,21.2912809 C25.072182,21.5735133 25.1933513,21.9110917 25.1933513,22.2680898 C25.1933513,23.1422983 24.4699577,23.8537052 23.5806149,23.8537052 L11.8433312,23.8537052 C11.3174961,23.8537052 10.8150388,23.6650108 10.4235436,23.3322873 C10.4301289,23.2643185 10.4340801,23.1957023 10.4340801,23.1257916 L10.4340801,21.7401987 C10.4340801,21.3828769 10.1390593,21.0928766 9.77555152,21.0928766 C9.41204376,21.0928766 9.11702296,21.3828769 9.11702296,21.7401987 L9.11702296,23.1257916 C9.11702296,23.6077228 8.71795466,24 8.22768015,24 L1.88934281,24 C1.3990683,24 1,23.6077228 1,23.1257916 L1,13.5266528 C1,13.0447215 1.3990683,12.6524443 1.88934281,12.6524443 L8.22768015,12.6524443 C8.71795466,12.6524443 9.11702296,13.0447215 9.11702296,13.5266528 L9.11702296,19.8228308 C9.11702296,20.1801525 9.41204376,20.4701528 9.77555152,20.4701528 C10.1390593,20.4701528 10.4340801,20.1801525 10.4340801,19.8228308 L10.4340801,13.5266528 C10.4340801,13.1573555 10.339252,12.8094199 10.1726442,12.5045313 C10.364276,12.1514171 10.6197851,11.7549323 10.9566225,11.2908024 L15.0549749,5.05579635 C15.1237912,4.95125383 15.1603395,4.82923363 15.1603395,4.70462413 L15.1603395,1 L16.936391,1 C17.915623,1 18.7121133,1.78293603 18.7121133,2.74550393 L18.7121133,8.9122175 C18.7121133,9.26953928 19.0071341,9.55953956 19.3706418,9.55953956 L26.3869343,9.55953956 C27.2762771,9.55953956 28,10.2690045 28,11.141271 C28,11.7426332 27.6555896,12.2863837 27.1014378,12.560201 C26.8781966,12.6702457 26.73793,12.8945428 26.7382593,13.1398779 C26.7385886,13.3852129 26.8798429,13.608539 27.1030841,13.7179364 Z" id="Shape"></path>
            </g>
        </g>
    </g>
</svg>