<?xml version="1.0" encoding="UTF-8"?>
<svg width="100px" height="88px" viewBox="0 0 100 88" version="1.1" xmlns="http://www.w3.org/2000/svg" xmlns:xlink="http://www.w3.org/1999/xlink">
    <!-- Generator: Sketch 47.1 (45422) - http://www.bohemiancoding.com/sketch -->
    <title>noun_Drum_1800801</title>
    <desc>Created with Sketch.</desc>
    <defs></defs>
    <g id="Page-1" stroke="none" stroke-width="1" fill="none" fill-rule="evenodd">
        <g id="Artboard-Copy" transform="translate(-586.000000, -33.000000)" fill-rule="nonzero" fill="#000000">
            <g id="noun_Drum_1800801" transform="translate(586.000000, 33.000000)">
                <g id="Group">
                    <path d="M49.97133,87.69614 C34.77823,87.69614 22.41897,75.31035 22.41897,60.08679 C22.41897,44.89369 34.77823,32.53345 49.97133,32.53345 C65.19587,32.53345 77.58068,44.89369 77.58068,60.08679 C77.58068,75.31035 65.19588,87.69614 49.97133,87.69614 Z M49.97133,35.95685 C36.6668,35.95685 25.84238,46.78127 25.84238,60.08678 C25.84238,73.42276 36.6668,84.27272 49.97133,84.27272 C63.3073,84.27272 74.15727,73.42275 74.15727,60.08678 C74.15727,46.78128 63.3073,35.95685 49.97133,35.95685 Z" id="Shape"></path>
                    <path d="M23.1009,61.05662 C22.80219,61.05662 22.49954,60.97801 22.22441,60.81392 L0.83302,48.03607 C0.02335,47.55164 -0.24195,46.50221 0.24149,45.69058 L11.9365,26.06689 C12.41994,25.25624 13.46937,24.98602 14.28101,25.47241 L35.27347,37.9653 C36.08707,38.44874 36.35238,39.49915 35.86893,40.31177 C35.38549,41.12242 34.33409,41.38969 33.52442,40.90723 L14.00194,29.28887 L4.05597,45.97455 L23.98132,57.87591 C24.79099,58.36034 25.05629,59.41075 24.57285,60.22238 C24.25252,60.75889 23.68457,61.05662 23.1009,61.05662 Z" id="Shape"></path>
                    <path d="M30.23268,45.08431 C29.93593,45.08431 29.63329,45.00668 29.35816,44.84259 L9.73349,33.14856 C8.92185,32.66512 8.65655,31.61471 9.13999,30.80209 C9.62343,29.99242 10.67089,29.72024 11.48646,30.20859 L31.11113,41.90262 C31.92276,42.38606 32.18807,43.43647 31.70463,44.24909 C31.3843,44.78559 30.81635,45.08431 30.23268,45.08431 Z" id="Shape"></path>
                    <path d="M76.89875,61.05662 C76.31509,61.05662 75.74714,60.75889 75.4268,60.22239 C74.94336,59.41075 75.20866,58.36034 76.01833,57.87592 L95.93975,45.97652 L85.94466,29.2869 L66.41824,40.90724 C65.60857,41.39265 64.55915,41.12342 64.07373,40.31178 C63.59029,39.49916 63.85559,38.44875 64.66919,37.96531 L85.66165,25.47242 C86.47132,24.98996 87.52075,25.25526 88.00419,26.06395 L99.7562,45.68763 C99.99006,46.07773 100.05884,46.54348 99.94879,46.98468 C99.83678,47.42489 99.55575,47.80319 99.16663,48.03607 L77.77523,60.81392 C77.50011,60.97801 77.19746,61.05662 76.89875,61.05662 Z" id="Shape"></path>
                    <path d="M69.76698,45.08431 C69.18331,45.08431 68.61536,44.7856 68.29503,44.24909 C67.81159,43.43647 68.07689,42.38606 68.88853,41.90262 L88.51123,30.20859 C89.3268,29.72318 90.37425,29.9934 90.8577,30.80209 C91.34114,31.61471 91.07584,32.66512 90.26421,33.14856 L70.6415,44.84259 C70.36637,45.00668 70.06372,45.08431 69.76698,45.08431 Z" id="Shape"></path>
                    <path d="M49.97133,79.93844 C45.4415,79.93844 41.75672,76.22712 41.75672,71.66585 C41.75672,67.13701 45.4415,63.45124 49.97133,63.45124 C54.5326,63.45124 58.24293,67.13701 58.24293,71.66585 C58.24294,76.22712 54.5326,79.93844 49.97133,79.93844 Z M49.97133,66.87465 C47.33008,66.87465 45.18013,69.02361 45.18013,71.66585 C45.18013,74.33953 47.33008,76.51503 49.97133,76.51503 C52.68923,76.51503 54.81952,74.38571 54.81952,71.66585 C54.81953,69.02361 52.64403,66.87465 49.97133,66.87465 Z" id="Shape"></path>
                    <path d="M25.38449,6.46581 L1.99642,6.46581 C1.05115,6.46581 0.28471,5.69937 0.28471,4.7541 C0.28471,3.80883 1.05115,3.04239 1.99642,3.04239 L25.38448,3.04239 C26.32975,3.04239 27.09618,3.80883 27.09618,4.7541 C27.09618,5.69937 26.32976,6.46581 25.38449,6.46581 Z" id="Shape"></path>
                    <path d="M13.69144,6.46581 C12.74617,6.46581 11.97973,5.69937 11.97973,4.7541 L11.97973,2.01557 C11.97973,1.0703 12.74616,0.30387 13.69144,0.30387 C14.63671,0.30387 15.40315,1.07031 15.40315,2.01557 L15.40315,4.7541 C15.40314,5.69937 14.63671,6.46581 13.69144,6.46581 Z" id="Shape"></path>
                    <path d="M25.38449,11.99888 L1.99642,11.99888 C1.05115,11.99888 0.28471,11.23244 0.28471,10.28718 C0.28471,9.34191 1.05115,8.57547 1.99642,8.57547 L25.38448,8.57547 C26.32975,8.57547 27.09618,9.3419 27.09618,10.28718 C27.09619,11.23244 26.32976,11.99888 25.38449,11.99888 Z" id="Shape"></path>
                    <path d="M13.69144,28.94102 C12.74617,28.94102 11.97973,28.17458 11.97973,27.22931 L11.97973,10.28717 C11.97973,9.3419 12.74616,8.57546 13.69144,8.57546 C14.63671,8.57546 15.40315,9.34189 15.40315,10.28717 L15.40315,27.22931 C15.40314,28.17459 14.63671,28.94102 13.69144,28.94102 Z" id="Shape"></path>
                    <path d="M13.69144,87.69614 C12.74617,87.69614 11.97973,86.92971 11.97973,85.98443 L11.97973,53.86884 C11.97973,52.92357 12.74616,52.15714 13.69144,52.15714 C14.63671,52.15714 15.40315,52.92357 15.40315,53.86884 L15.40315,85.98443 C15.40314,86.9297 14.63671,87.69614 13.69144,87.69614 Z" id="Shape"></path>
                    <path d="M4.21909,87.69614 C3.885,87.69614 3.54895,87.59887 3.2522,87.39547 C2.47397,86.86092 2.27549,85.79578 2.81003,85.01657 L12.28042,71.21189 C12.81299,70.43268 13.87814,70.23321 14.6603,70.76874 C15.43853,71.30328 15.63701,72.36843 15.10247,73.14764 L5.63208,86.9523 C5.29996,87.43575 4.76542,87.69614 4.21909,87.69614 Z" id="Shape"></path>
                    <path d="M23.10483,87.69614 C22.55653,87.69614 22.02003,87.43476 21.68791,86.94838 L12.27648,73.1437 C11.74587,72.36253 11.94632,71.29836 12.72651,70.76579 C13.5126,70.2342 14.57382,70.43367 15.10639,71.21583 L24.51782,85.0205 C25.04843,85.80167 24.84798,86.86584 24.06778,87.39841 C23.77104,87.59984 23.43696,87.69614 23.10483,87.69614 Z" id="Shape"></path>
                    <path d="M98.00323,6.46581 L74.61517,6.46581 C73.6699,6.46581 72.90346,5.69937 72.90346,4.7541 C72.90346,3.80883 73.66989,3.04239 74.61517,3.04239 L98.00323,3.04239 C98.9485,3.04239 99.71493,3.80883 99.71493,4.7541 C99.71493,5.69937 98.9485,6.46581 98.00323,6.46581 Z" id="Shape"></path>
                    <path d="M86.30822,6.46581 C85.36295,6.46581 84.59651,5.69937 84.59651,4.7541 L84.59651,2.01557 C84.59651,1.0703 85.36294,0.30387 86.30822,0.30387 C87.25349,0.30387 88.01992,1.07031 88.01992,2.01557 L88.01992,4.7541 C88.01992,5.69937 87.25349,6.46581 86.30822,6.46581 Z" id="Shape"></path>
                    <path d="M98.00323,11.99888 L74.61517,11.99888 C73.6699,11.99888 72.90346,11.23244 72.90346,10.28718 C72.90346,9.34191 73.66989,8.57547 74.61517,8.57547 L98.00323,8.57547 C98.9485,8.57547 99.71493,9.3419 99.71493,10.28718 C99.71494,11.23244 98.9485,11.99888 98.00323,11.99888 Z" id="Shape"></path>
                    <path d="M86.30822,28.94102 C85.36295,28.94102 84.59651,28.17458 84.59651,27.22931 L84.59651,10.28717 C84.59651,9.3419 85.36294,8.57546 86.30822,8.57546 C87.25349,8.57546 88.01992,9.34189 88.01992,10.28717 L88.01992,27.22931 C88.01992,28.17459 87.25349,28.94102 86.30822,28.94102 Z" id="Shape"></path>
                    <path d="M86.30822,87.69614 C85.36295,87.69614 84.59651,86.92971 84.59651,85.98443 L84.59651,53.86884 C84.59651,52.92357 85.36294,52.15714 86.30822,52.15714 C87.25349,52.15714 88.01992,52.92357 88.01992,53.86884 L88.01992,85.98443 C88.01992,86.9297 87.25349,87.69614 86.30822,87.69614 Z" id="Shape"></path>
                    <path d="M76.83783,87.69614 C76.50375,87.69614 76.16769,87.59887 75.87094,87.39547 C75.09272,86.86092 74.89423,85.79578 75.42877,85.01657 L84.89719,71.21189 C85.43173,70.43268 86.49295,70.23321 87.27707,70.76874 C88.0553,71.30328 88.25379,72.36843 87.71925,73.14764 L78.25082,86.9523 C77.9187,87.43575 77.38416,87.69614 76.83783,87.69614 Z" id="Shape"></path>
                    <path d="M95.72161,87.69614 C95.17332,87.69614 94.63681,87.43476 94.30469,86.94838 L84.89326,73.1437 C84.36265,72.36253 84.5631,71.29836 85.3433,70.76579 C86.13135,70.2342 87.18864,70.43367 87.72318,71.21583 L97.13461,85.0205 C97.66522,85.80167 97.46476,86.86584 96.68457,87.39841 C96.38783,87.59984 96.05373,87.69614 95.72161,87.69614 Z" id="Shape"></path>
                    <path d="M30.12066,87.69614 C29.94379,87.69614 29.76496,87.66863 29.58809,87.61065 C28.68998,87.31685 28.20065,86.34996 28.49346,85.45186 L30.54711,79.17692 C30.84386,78.27881 31.80878,77.79242 32.70688,78.08328 C33.60499,78.37708 34.09432,79.34396 33.80151,80.24207 L31.74786,86.51701 C31.51007,87.23824 30.8419,87.69614 30.12066,87.69614 Z" id="Shape"></path>
                    <path d="M69.87899,87.69614 C69.15776,87.69614 68.48959,87.23825 68.25179,86.51701 L66.19814,80.24207 C65.90532,79.34396 66.39466,78.37708 67.29277,78.08328 C68.19087,77.79144 69.15579,78.27881 69.45254,79.17692 L71.50619,85.45186 C71.79901,86.34996 71.30966,87.31685 70.41156,87.61065 C70.2347,87.66862 70.05586,87.69614 69.87899,87.69614 Z" id="Shape"></path>
                    <path d="M49.97133,35.95685 C49.02606,35.95685 48.25963,35.19042 48.25963,34.24515 L48.25963,25.28965 C48.25963,24.34438 49.02606,23.57795 49.97133,23.57795 C50.9166,23.57795 51.68303,24.34438 51.68303,25.28965 L51.68303,34.24515 C51.68304,35.19042 50.9166,35.95685 49.97133,35.95685 Z" id="Shape"></path>
                    <path d="M57.95798,27.00135 L41.98468,27.00135 C41.03941,27.00135 40.27298,26.23491 40.27298,25.28964 C40.27298,24.34437 41.03942,23.57794 41.98468,23.57794 L57.95798,23.57794 C58.90325,23.57794 59.66968,24.34437 59.66968,25.28964 C59.66969,26.23492 58.90325,27.00135 57.95798,27.00135 Z" id="Shape"></path>
                </g>
            </g>
        </g>
    </g>
</svg>